<svg width="659" height="672" viewBox="0 0 659 672" fill="none" xmlns="http://www.w3.org/2000/svg">
<g clip-path="url(#clip0_1_161)">
<path d="M238.756 595.782C224.959 592.058 215.883 586.024 207.185 579.612C188.755 566.054 181.156 542.79 187.809 520.345C188.705 517.341 189.033 516.003 189.159 515.41C189.121 515.069 189.071 514.564 189.02 514.135C188.667 510.941 188.074 505.576 188.074 494.947C188.074 492.107 188.212 489.38 188.478 486.742C181.951 481.213 171.31 474.901 158.788 469.259C149.206 464.942 142.062 456.244 139.676 446.007L127.154 392.294C126.611 389.959 126.409 387.586 126.548 385.238C119.428 384.544 112.422 383.016 105.606 380.668C91.2655 375.72 77.4304 367.452 64.0623 359.436C63.9865 359.386 63.9108 359.348 63.8351 359.297C64.4157 367.995 65.413 376.629 66.8268 385.175L12.1931 421.416C3.89959 426.074 0.466052 436.236 4.24042 444.984L31.2417 507.596C35.0287 516.318 44.7739 520.787 53.8626 517.947L117.762 503.114C133.591 523.905 152.602 542.499 174.39 558.102L161.464 622.455C158.901 631.595 163.66 641.239 172.496 644.735L235.929 669.919C244.752 673.428 254.826 669.704 259.231 661.297L279.858 628.325C276.26 627.908 272.587 627.391 268.774 626.772C252.263 624.058 243.894 608.873 238.794 595.795L238.756 595.782Z" fill="#0746A5"/>
<path d="M17.0405 208.499L1.31185 248.098C-2.19743 256.935 1.55169 267.008 9.95881 271.414L27.6946 282.472C32.7944 278.861 39.51 274.658 47.8035 270.669C30.3328 250.648 21.345 228.659 17.0405 208.512V208.499Z" fill="#0746A5"/>
<path d="M649.077 411.999L593.383 377.197C594.266 370.633 594.91 364.081 595.301 357.53C594.229 358.174 593.168 358.805 592.108 359.436C578.74 367.439 564.905 375.72 550.565 380.668C543.748 383.016 536.742 384.544 529.622 385.238C529.749 387.586 529.559 389.959 529.017 392.294L516.494 446.007C514.108 456.257 506.964 464.942 497.383 469.259C484.494 475.065 473.676 481.529 467.175 487.197C467.036 489.57 467.036 491.425 467.099 492.561C467.289 495.679 468.513 500.615 469.7 505.374C472.388 516.192 475.178 527.376 472.01 537.879C470.242 543.736 467.112 549.328 463.83 554.087C466.165 569.349 461.255 582.768 449.856 591.187C437.245 600.503 420.873 601.892 412.251 601.892C411.266 601.892 410.155 601.879 408.956 601.829C408.603 602.485 408.186 603.268 407.732 604.177C407.454 604.745 407.176 605.3 406.911 605.856C404.084 611.713 399.476 621.256 387.156 625.977L409.158 659.025C413.816 667.318 423.978 670.752 432.726 666.978L495.388 639.939C504.098 636.177 508.592 626.444 505.752 617.368L491.02 553.38C511.748 537.589 530.317 518.603 545.894 496.866L610.21 509.78C619.387 512.317 628.993 507.583 632.502 498.722L657.686 435.289C661.195 426.466 657.459 416.43 649.064 411.987L649.077 411.999Z" fill="#0746A5"/>
<path d="M622.315 278.357L646.817 262.035C655.111 257.377 658.544 247.215 654.757 238.492L639.975 204.22C636.05 225.503 627.062 249.209 608.354 270.656C613.643 273.206 618.301 275.845 622.315 278.357Z" fill="#0746A5"/>
<path d="M152.388 187.519C157.172 190.107 162.246 191.735 166.854 192.733C171.903 187.544 177.192 183.025 182.204 179.642C195.559 170.617 212.31 166.4 234.906 166.4C243.717 166.4 253.828 167.006 266.704 168.294C277.308 169.354 287.28 170.957 296.924 172.497C308.513 174.353 319.457 176.108 327.99 176.221C328.243 176.221 328.508 176.221 328.76 176.221C336.789 176.221 346.319 174.643 357.352 172.813C366.719 171.26 377.347 169.493 389.441 168.294C402.329 167.006 412.44 166.4 421.251 166.4C443.847 166.4 460.598 170.604 473.954 179.642C478.965 183.025 484.254 187.557 489.304 192.733C493.911 191.723 498.986 190.107 503.77 187.519C515.093 181.384 523.715 171.892 528.007 164.318C515.131 149.876 500.589 136.736 484.482 125.248L497.483 61.0337C500.059 51.8691 495.3 42.2249 486.438 38.7157L423.094 13.57C414.233 10.0481 404.172 13.772 399.779 22.217L365.09 77.8605C338.455 74.2629 311.833 74.7804 286.005 79.0597L249.764 24.4261C245.106 16.1326 234.931 12.6612 226.183 16.4355L163.597 43.4494C154.849 47.2238 150.368 57.0068 153.233 66.0956L168.066 129.995C154.041 140.661 141.039 152.805 129.249 166.262C133.831 173.469 141.948 181.927 152.337 187.544L152.388 187.519Z" fill="#0746A5"/>
<path d="M473.335 344.591C473.335 344.591 459.475 398.53 441.537 399.502C423.599 400.474 387.32 391.512 387.32 391.512C387.32 391.512 416.555 381.565 429.027 369.093C441.499 356.621 473.335 344.591 473.335 344.591Z" fill="white"/>
<path d="M272.46 392.724C272.46 392.724 231.447 406.218 214.482 398.089C197.529 389.959 183.794 342.546 183.794 342.546C183.794 342.546 216.779 353.213 227.648 358.628C238.516 364.031 258.89 389.353 272.473 392.736L272.46 392.724Z" fill="white"/>
<path d="M443.771 482.324C443.771 482.324 463.186 463.629 487.877 451.283L504.755 388.116L494.403 340.198L481.881 337.471L467.718 355.99C467.718 355.99 462.58 393.91 441.575 399.553C420.57 405.195 396.926 396.283 396.926 396.283L270.049 389.202C270.049 389.202 262.917 402.267 249.36 403.365C235.802 404.451 217.587 399.553 209.609 393.014C201.631 386.475 185.65 340.741 185.65 340.741L168.23 336.929C168.23 336.929 167.876 346.169 166.046 362.516C164.216 378.876 156.793 389.745 156.793 389.745L168.23 446.373C168.23 446.373 199.977 464.348 206.895 470.332C213.813 476.328 443.771 482.311 443.771 482.311V482.324Z" fill="#0746A5"/>
<path d="M503.353 256.758C503.353 256.758 552.837 252.39 562.127 216.894L572.403 222.65L579.8 209.496C579.8 209.496 596.854 210.153 592.537 180.728C588.232 151.29 565.826 112.751 556.775 83.7304C547.737 54.7094 545.263 19.6166 545.263 19.6166C545.263 19.6166 579.851 85.8637 594.165 109.217C608.48 132.57 620.775 181.839 616.357 205.394C611.952 228.936 574.776 280.25 564.576 284.719L507.86 277.738C507.86 277.738 498.91 279.48 503.341 256.783L503.353 256.758Z" fill="#0746A5"/>
<path d="M113.735 22.0529C113.735 22.0529 117.522 57.2593 110.869 72.0916C104.217 86.9367 84.5878 108.384 78.7053 134.64C72.8229 160.897 64.9964 186.358 67.2686 197.908C69.5408 209.458 78.7053 210.771 78.7053 210.771L87.2892 219.709L99.4454 215.783C99.4454 215.783 97.6403 233.657 120.173 244.741C142.705 255.824 158.775 257.604 158.775 257.604L156.276 272.979C156.276 272.979 151.618 278.344 127.684 280.49C103.75 282.636 89.7886 277.99 89.7886 277.99C89.7886 277.99 45.4429 251.04 43.6756 205.785C41.9084 160.531 52.0323 133.201 62.6232 115.352C73.2142 97.5024 107.55 37.1882 113.735 22.0529Z" fill="#0746A5"/>
<path d="M404.071 580.609C404.071 580.609 440.881 580.192 441.524 570.081C442.168 559.97 438.583 552.699 438.583 552.699C438.583 552.699 445.337 553.696 445.93 536.301C446.511 518.894 442.496 493.697 442.496 493.697C442.496 493.697 445.438 477.779 444.705 470.925C443.973 464.071 443.115 455.626 437.851 450.362C432.587 445.098 430.504 442.523 419.484 443.747C408.464 444.971 402.102 445.704 402.102 445.704L408.464 423.916C408.464 423.916 399.4 397.47 394.995 394.541C390.589 391.6 386.184 384.506 386.184 384.506C386.184 384.506 392.912 383.748 400.978 379.595C420.128 369.737 452.822 350.335 464.032 345.588C479.975 338.835 489.733 339.718 488.268 324.785C486.804 309.852 505.196 339.049 505.196 339.049L594.544 325.517L635.696 322.816C635.696 322.816 614.375 295.12 569.638 286.536C524.901 277.953 502.495 272.461 502.495 272.461L500.867 257.844C500.867 257.844 540.352 254.915 557.722 229.694L564.993 218.535L584.912 208.209C584.912 208.209 595.92 193.629 589.684 167.713C582.11 136.269 548.835 88.2116 545.048 55.5551C541.261 22.8986 554.478 127.079 554.478 153.348C554.478 179.617 537.461 208.31 481.919 223.193C481.919 223.193 475.165 206.34 440.224 198.83C405.283 191.319 349.942 206.593 330.3 204.788C310.671 202.983 234.628 183.72 208.347 199.032C182.065 214.331 174.264 220.643 174.264 220.643C174.264 220.643 172.408 226.361 151.883 214.154C128.454 200.231 116.903 203.942 109.557 184.666C102.21 165.39 116.828 90.143 118.166 70.3749C119.516 50.6068 104.962 84.1595 104.962 84.1595C104.962 84.1595 83.3128 117.22 79.1219 133.555C74.931 149.889 58.2808 182.76 72.8102 211.655L89.4604 220.264L117.598 243.238L161.249 255.874L158.952 275.403C158.952 275.403 134.21 278.584 106.477 283.204C78.7558 287.824 35.2811 307.453 28.4898 319.975L42.7163 326.792L166.362 339.542L213.207 349.918C213.207 349.918 246.482 379.861 273.104 386.387C273.104 386.387 267.07 387.346 259.761 410.409C252.452 433.459 254.131 447.774 254.131 447.774V457.86C254.131 457.86 223.103 467.921 218.546 480.393C213.989 492.864 215.58 521.103 215.58 534.95C215.58 548.798 227.559 571.419 240.486 573.792C253.412 576.166 261.238 580.609 261.238 580.609C261.238 580.609 262.387 605.313 277.245 607.888C292.102 610.463 376.868 609.668 376.868 609.668L389.617 594.255L404.008 580.647L404.071 580.609Z" fill="#E3E1E4"/>
<mask id="mask0_1_161" style="mask-type:luminance" maskUnits="userSpaceOnUse" x="338" y="463" width="91" height="66">
<path d="M338.001 471.342L423.612 463.869L428.623 521.216L343.012 528.702L338.001 471.342Z" fill="white"/>
</mask>
<g mask="url(#mask0_1_161)">
<path d="M343.126 528.689C343.126 528.689 349.538 520.737 366.668 521.103C383.798 521.469 405.649 527.452 417.439 514.337C429.229 501.221 429.116 481.036 415.445 471.746C401.774 462.455 377.625 467.024 368.827 474.093C360.028 481.163 338.771 501.385 343.113 528.689H343.126Z" fill="black"/>
</g>
<mask id="mask1_1_161" style="mask-type:luminance" maskUnits="userSpaceOnUse" x="229" y="477" width="88" height="61">
<path d="M316.882 480.14L230.98 477.451L229.188 534.988L315.077 537.677L316.882 480.14Z" fill="white"/>
</mask>
<g mask="url(#mask1_1_161)">
<path d="M314.963 537.677C314.963 537.677 308.109 530.09 291.029 531.416C273.95 532.741 252.465 539.937 239.955 527.49C227.446 515.043 226.436 494.897 239.577 484.861C252.718 474.826 277.068 478.032 286.245 484.609C295.422 491.185 317.778 510.171 314.963 537.677Z" fill="black"/>
</g>
<path d="M637.413 319.079C635.355 312.515 612.709 289.844 574.789 280.894C616.673 250.282 624.701 208.461 625.547 182.621C626.569 151.492 600.666 112.575 590.012 94.0058C579.346 75.4243 556.371 37.1504 551.461 22.3433C546.55 7.53612 544.707 0 544.707 0C539.961 14.2896 537.79 20.0079 534.912 51.8818C532.034 83.7556 552.142 123.557 550.905 159.685C550.35 176.12 533.056 196.57 513.995 206.896C503.126 212.778 491.576 214.887 483.648 215.606C483.244 215.114 482.841 214.634 482.437 214.154C476.453 207.136 470.23 201.582 465.054 198.085C448.48 186.875 425.392 186.547 392.723 189.817C365.987 192.493 346.446 198.06 329.19 197.832C311.934 197.605 289.843 192.165 266.313 189.817C233.644 186.547 210.556 186.888 193.981 198.085C188.793 201.594 182.57 207.148 176.599 214.154C176.195 214.634 175.791 215.114 175.387 215.606C167.46 214.887 155.922 212.791 145.041 206.896C125.98 196.583 108.698 176.133 108.13 159.685C106.906 123.57 127.015 83.7683 124.124 51.8818C121.246 20.0079 119.075 14.277 114.328 0C114.328 0 112.485 7.53612 107.575 22.3433C102.664 37.1504 79.69 75.4243 69.0233 94.0058C58.3566 112.587 32.4662 151.492 33.4887 182.621C34.3344 208.474 42.3629 250.295 84.247 280.894C46.3266 289.831 23.6804 312.515 21.6228 319.079C19.2369 326.691 25.9399 326.388 25.9399 326.388C50.0631 325.492 82.8079 355.939 113.053 366.366C133.023 373.246 150.507 369.8 160.088 366.657C160.063 366.694 160.05 366.732 160.037 366.758C154.874 375.405 150.014 382.537 147.565 386.046C146.505 387.561 146.152 389.442 146.568 391.247L159.091 444.959C160.189 449.667 163.408 453.593 167.813 455.588C178.922 460.599 200.394 471.417 209.735 483.99C208.599 488.08 207.968 492.713 207.968 498.103C207.968 521.81 211.061 514.867 206.933 528.752C202.805 542.638 206.478 558.291 219.556 567.91C228.418 574.436 237.229 580.47 254.094 582.995C257.527 593.093 263.119 610.059 273.167 611.713C292.582 614.894 306.468 614.869 325.655 613.783C344.843 612.685 356.052 613.518 371.541 613.518C387.03 613.518 388.898 606.613 392.66 599.089C396.421 591.566 400.751 584.762 405.8 585.949C410.85 587.135 429.368 587.602 440.325 579.511C450.108 572.278 447.634 559.869 445.236 553.014C448.139 549.644 453.719 542.55 455.789 535.721C458.629 526.316 450.84 508.909 450.121 496.828C449.932 493.546 450.083 488.282 450.853 482.097C460.838 470.344 480.695 460.359 491.235 455.6C495.641 453.619 498.859 449.693 499.958 444.972L512.48 391.259C512.897 389.467 512.543 387.573 511.483 386.059C509.021 382.549 504.161 375.417 499.011 366.77C498.986 366.732 498.973 366.694 498.96 366.669C508.542 369.812 526.037 373.259 545.995 366.379C576.24 355.952 608.985 325.505 633.108 326.401C633.108 326.401 639.811 326.704 637.426 319.092L637.413 319.079ZM602.282 141.495C612.974 168.509 615.158 195.068 609.086 212.867C596.98 248.288 572.201 269.71 560.385 278.306C558.795 278.104 557.192 277.927 555.563 277.788C531.857 275.668 515.888 274.304 504.767 272.638C505.07 269.015 505.007 265.418 504.654 261.87C550.741 260.267 564.98 224.405 564.98 224.405L568.843 233.19L580.406 218.068C581.479 220.756 583.915 228.015 583.915 228.015C583.915 228.015 591.906 218.03 594.38 207.401C605.489 159.596 567.631 98.7269 559.969 81.0795C551.839 62.3339 547.245 34.853 547.245 34.853C550.577 49.5591 584.458 96.4926 602.27 141.507L602.282 141.495ZM556.636 181.321C567.871 158.65 549.744 79.8424 549.744 79.8424C558.53 100.456 577.44 138.351 582.527 161.174C589.141 190.852 583.36 206.151 583.36 206.151C582.06 199.246 578.992 195.762 578.992 195.762L569.474 214.293C567.934 206.101 563.895 204.346 563.895 204.346C563.895 204.346 550.287 247.644 502.495 250.51C499.97 241.358 495.691 232.749 490.68 225.137C527.161 215.922 547.434 199.852 556.624 181.321H556.636ZM102.374 181.321C111.564 199.865 131.849 215.934 168.318 225.137C163.307 232.749 159.04 241.37 156.503 250.51C99.7484 250.51 96.1381 200.155 96.1381 200.155C96.1381 200.155 91.2403 205.23 89.5361 214.293L80.8134 195.699C80.8134 195.699 77.1653 198.06 75.6379 206.151C75.6379 206.151 68.4047 183.088 74.9815 160.657C81.5582 138.225 103.043 104.66 109.254 79.8424C109.254 79.8424 91.1267 158.65 102.361 181.321H102.374ZM49.9495 212.867C43.865 195.068 46.0615 168.509 56.7534 141.495C74.5649 96.4799 108.446 49.5465 111.778 34.8403C111.778 34.8403 107.184 62.3213 99.0541 81.0669C91.2655 99.0425 52.9917 159.028 65.4761 207.136C68.6951 218.068 76.572 223.294 76.572 223.294C76.572 223.294 76.37 221.072 76.976 219.797C77.5692 218.522 78.617 218.068 78.617 218.068C78.617 218.068 78.6675 218.156 78.7558 218.295L78.819 218.408C78.9704 218.648 79.1977 219.014 79.5006 219.494L80.0939 220.428C80.157 220.529 80.2328 220.643 80.2959 220.744L81.7097 222.978C82.202 223.761 82.7574 224.644 83.376 225.616L84.4868 227.371C85.888 229.593 87.529 232.18 89.4099 235.16L90.0916 233.594C90.3693 232.951 90.6344 232.319 90.8995 231.713L92.1618 228.785C92.4016 228.242 92.6162 227.737 92.8182 227.27L93.1464 226.513C93.4115 225.907 93.6261 225.414 93.7776 225.061L93.9291 224.707C94.0048 224.531 94.0553 224.417 94.0553 224.417C94.0553 224.417 108.294 260.28 154.382 261.883C154.029 265.43 153.978 269.028 154.268 272.651C143.147 274.317 127.179 275.68 103.472 277.801C101.844 277.953 100.241 278.117 98.6502 278.319C86.8348 269.722 62.0552 248.288 49.9495 212.879V212.867ZM217.524 469.12C214.431 449.996 194.663 436.602 194.663 436.602C205.721 453.808 207.135 459.779 209.622 467.807C206.15 463.49 197.693 454.439 183.958 448.948C176.687 446.032 171.525 439.443 170.085 431.742L163.988 399.098C162.941 393.519 163.761 387.737 166.399 382.713C170.59 374.723 175.892 360.61 172.017 345.121C172.017 345.121 175.021 345.26 180.108 346.257C188.654 379.457 204.964 393.544 204.964 393.544C194.739 390.237 182.166 381.401 182.166 381.401C186.874 398.985 211.124 406.029 211.124 406.029C195.484 407.846 191.154 405.865 191.154 405.865C200.722 420.71 239.009 409.134 254.144 403.832C249.145 411.798 244.449 422.527 246.002 433.181C246.065 436.413 246.734 442.472 250.206 448.254C249.473 448.822 248.792 449.364 248.173 449.882C243.629 450.513 239.198 451.851 235.525 454.313C228.506 458.983 222.295 463.477 217.536 469.107L217.524 469.12ZM192 349.35C198.122 351.307 205.292 354.197 212.992 358.363C213.03 366.48 214.456 383.862 225.59 389.05C236.459 394.125 251.367 390.237 258.398 387.864C262.349 390.224 264.028 391.045 264.028 391.045C264.028 391.045 263.889 391.196 263.649 391.449C256.038 393.506 232.987 398.695 218.269 391.045C204.497 383.887 195.42 359.89 192.012 349.337L192 349.35ZM391.625 573.565C365.658 575.307 354.79 587.224 354.79 587.224C364.257 581.467 396.775 580.786 396.775 580.786C396.775 580.786 389.378 587.148 383.116 594.949C376.868 602.763 372.866 601.904 356.835 601.134C340.803 600.364 313.575 604.063 284.958 602.674C270.365 601.968 266.199 591.061 265.038 584.043C270.706 584.32 277.106 584.282 284.44 583.866C323.345 581.631 359.688 570.346 374.343 566.61C388.986 562.873 414.233 553.986 434.821 560.412C435.339 574.802 415.293 571.975 391.599 573.565H391.625ZM435.705 544.645C432.84 548.584 415.18 539.596 393.455 548.558C371.718 557.521 353.994 561.03 331.096 565.84C308.197 570.649 254.22 571.924 242.733 567.38C231.245 562.848 219.468 551.07 221.614 535.695C223.76 520.32 223.179 509.893 221.374 499.618C219.569 489.342 228.14 469.928 252.528 465.371C276.917 460.814 299.449 460.246 312.729 459.728C312.729 459.728 283.695 454.313 273.647 451.725C273.496 451.687 273.306 451.649 273.142 451.599C280.691 446.284 298.364 437.549 332.888 437.549C367.413 437.549 382.435 443.204 388.267 446.613C378.067 450.172 367.451 454.717 357.302 459.728C357.302 459.728 379.127 456.282 397.81 451.725C416.48 447.168 428.863 451.132 433.357 459.463C437.851 467.782 429.848 483.94 434.405 504.503C436.816 515.384 446.599 529.649 435.718 544.645H435.705ZM495.047 399.098L488.95 431.742C487.511 439.443 482.348 446.032 475.077 448.948C466.455 452.394 459.929 457.241 455.385 461.445C459.235 449.743 465.547 438.42 475.607 432.399C475.607 432.399 453.769 444.037 447.786 458.68C447.786 458.68 445.337 441.134 427.954 439.354C422.766 438.824 416.619 439.342 409.903 440.616C409.827 440.566 409.739 440.516 409.651 440.465L410.976 440.301C416.682 427.463 411.001 413.577 404.892 403.832C420.027 409.134 458.326 420.697 467.882 405.865C467.882 405.865 463.552 407.846 447.912 406.029C447.912 406.029 472.161 398.985 476.87 381.401C476.87 381.401 464.297 390.237 454.072 393.544C454.072 393.544 470.381 379.457 478.927 346.257C484.014 345.26 487.019 345.121 487.019 345.121C483.131 360.623 488.445 374.723 492.636 382.713C495.274 387.737 496.095 393.519 495.047 399.098ZM395.374 391.449C395.134 391.196 394.995 391.045 394.995 391.045C394.995 391.045 396.674 390.224 400.625 387.864C407.643 390.237 422.564 394.125 433.433 389.05C444.554 383.85 445.98 366.48 446.031 358.363C453.719 354.197 460.901 351.307 467.023 349.35C463.603 359.89 454.539 383.887 440.767 391.057C426.048 398.707 402.998 393.506 395.386 391.461L395.374 391.449ZM501.397 326.679C500.69 317.249 494.063 307.605 484.898 301.154C488.445 286.044 478.296 275.756 468.652 259.611C459.336 244.021 459.197 236.447 459.235 235.311C458.061 250.51 465.862 269.356 470.444 280.742C473.02 287.13 472.994 292.015 472.477 295.07C468.551 293.883 464.474 293.315 460.396 293.555C440.035 294.729 430.883 312.313 430.883 312.313C445.513 297.683 461.141 299.614 467.629 302.934C474.118 306.254 480.455 315.355 479.356 326.982C478.258 338.608 447.306 347.116 447.306 347.116C450.765 341.587 466.266 330.693 466.266 330.693C450.033 328.458 403.44 376.427 401.761 377.21C400.082 377.992 387.042 385.705 380.832 374.218C373.472 360.61 381.046 341.056 381.046 341.056C362.439 359.663 367.249 374.824 373.939 383.875C369.067 385.049 361.682 385.289 355.358 378.952C342.558 366.152 343.214 342.761 349.576 333.457C349.576 333.457 326.274 355.119 346.862 382.019C340.588 380.58 331.474 374.597 334.151 351.408C334.151 351.408 320.126 393.33 355.875 391.537C355.989 391.638 356.09 391.739 356.216 391.84C356.216 391.84 369.004 399.868 383.558 393.165C402.367 405.65 401.799 425.14 399.943 435.277C390.791 430.922 377.764 426.15 361.48 423.777C360.407 419.876 357.945 414.499 352.316 408.869C352.316 408.869 355.232 416.683 354.562 422.944C347.127 422.224 339.124 422.022 330.54 422.603C321.186 423.222 312.729 424.358 305.066 425.809C302.744 419.409 306.682 408.869 306.682 408.869C298.868 416.683 297.139 424.017 296.786 427.551C280.931 431.326 269.077 436.514 260.569 441.374C259.219 437.309 251.039 409.336 275.427 393.153C289.982 399.856 302.769 391.827 302.769 391.827C302.883 391.726 302.996 391.625 303.11 391.524C338.872 393.317 324.835 351.395 324.835 351.395C327.511 374.584 318.397 380.567 312.123 382.007C332.712 355.106 309.409 333.445 309.409 333.445C315.771 342.748 316.427 366.139 303.627 378.939C297.303 385.263 289.906 385.036 285.046 383.862C291.724 374.811 296.546 359.663 277.939 341.044C277.939 341.044 285.5 360.61 278.154 374.205C271.943 385.693 258.903 377.98 257.224 377.197C255.545 376.414 208.953 328.446 192.719 330.68C192.719 330.68 208.22 341.574 211.679 347.103C211.679 347.103 180.727 338.595 179.629 326.969C178.53 315.343 184.867 306.254 191.356 302.921C197.844 299.602 213.472 297.67 228.102 312.301C228.102 312.301 218.938 294.716 198.589 293.542C194.524 293.303 190.447 293.871 186.508 295.057C185.991 291.99 185.966 287.117 188.541 280.73C193.136 269.343 200.937 250.497 199.75 235.298C199.788 236.435 199.649 244.008 190.333 259.598C180.689 275.743 170.54 286.044 174.1 301.154C164.935 307.592 158.308 317.236 157.588 326.666C120.413 283.027 32.908 318.915 32.908 318.915C32.908 318.915 49.9747 303.439 77.0391 295.512C95.2293 290.185 109.544 287.458 109.544 287.458C119.441 285.956 127.898 284.327 135.132 282.674C171.701 274.254 176.927 264.799 176.927 264.799C173.519 267.879 168.773 269.874 160.883 271.464C160.997 266.844 162.486 254.044 173.973 236.977C188.503 215.379 205.09 203.69 222.485 201.481C239.88 199.272 255.671 199.499 282.597 204.359C309.523 209.219 322.777 212.286 330.351 212.337C337.925 212.4 349.437 209.219 376.376 204.359C403.301 199.499 419.093 199.259 436.488 201.481C453.883 203.702 470.482 215.379 484.999 236.977C496.474 254.044 497.963 266.844 498.089 271.464C490.187 269.861 485.454 267.867 482.045 264.799C482.045 264.799 487.271 274.254 523.841 282.674C531.074 284.34 539.544 285.968 549.428 287.458C549.428 287.458 563.743 290.172 581.933 295.512C608.998 303.439 626.065 318.915 626.065 318.915C626.065 318.915 538.572 283.027 501.384 326.666L501.397 326.679Z" fill="black"/>
<path d="M414.157 380.441C414.157 380.441 428.952 370.014 434.102 365.533C439.24 361.064 434.443 390.969 414.157 380.441Z" fill="#02807F"/>
<path d="M224.504 366.896C224.504 366.896 239.097 377.614 244.979 381.06C250.862 384.506 220.97 389.467 224.504 366.896Z" fill="#02807F"/>
</g>
<defs>
<clipPath id="clip0_1_161">
<rect width="659" height="671.23" fill="white"/>
</clipPath>
</defs>
</svg>
